<?xml version="1.0" encoding="utf-8"?>
<!-- Generator: Adobe Illustrator 16.0.0, SVG Export Plug-In . SVG Version: 6.00 Build 0)  -->
<!DOCTYPE svg PUBLIC "-//W3C//DTD SVG 1.1//EN" "http://www.w3.org/Graphics/SVG/1.1/DTD/svg11.dtd">
<svg version="1.1" id="Camada_1" xmlns="http://www.w3.org/2000/svg" xmlns:xlink="http://www.w3.org/1999/xlink" x="0px" y="0px"
	 width="107px" height="24px" viewBox="0 0 107 24" enable-background="new 0 0 107 24" xml:space="preserve">
<g>
	<path d="M5.628,21.277c0.174,0.006,0.294,0.01,0.358,0.039c0.092,0.043,0.155,0.149,0.155,0.25c0,0.135-0.116,0.252-0.252,0.3
		c-0.087,0.028-0.154,0.038-0.333,0.033L5.628,21.277L5.628,21.277z M6.618,22.436c0.304-0.13,0.517-0.23,0.647-0.545
		c0.034-0.072,0.082-0.207,0.082-0.411c0-0.396-0.212-0.759-0.561-0.945c-0.129-0.073-0.227-0.093-0.362-0.126
		c-0.338-0.043-0.435-0.043-0.623-0.043c-0.169,0-0.338,0.006-0.507,0.01c-0.257,0.01-0.513,0.004-0.769,0l-0.43,3.39h1.24
		l0.146-1.178l0.439,1.178h1.324l-0.628-1.327L6.618,22.436z"/>
	<path d="M9.206,22.552c0.043-0.125,0.082-0.251,0.13-0.371c0.105-0.28,0.154-0.337,0.275-0.82l0.086,1.191H9.206z M8.997,20.375
		l-1.575,3.39h1.314l0.179-0.439h0.84l0.038,0.445h1.212l-0.478-3.396H8.997L8.997,20.375z"/>
	<polygon points="11.87,20.375 11.436,23.765 12.69,23.765 13.101,20.375 	"/>
	<path d="M13.877,20.375l-0.429,3.39h1.212l0.188-1.758l0.846,1.764h1.216l0.42-3.396h-1.208l-0.193,1.753
		c-0.106-0.251-0.208-0.498-0.323-0.739c-0.155-0.342-0.329-0.677-0.498-1.01L13.877,20.375L13.877,20.375z"/>
	<polygon points="18.112,20.379 17.687,23.771 18.944,23.771 19.088,22.542 19.841,22.542 19.691,23.771 20.948,23.771 
		21.367,20.375 20.111,20.375 19.971,21.538 19.222,21.538 19.354,20.379 	"/>
	<path d="M23.095,22.552c0.043-0.125,0.082-0.251,0.13-0.371c0.107-0.28,0.156-0.337,0.276-0.82l0.087,1.191H23.095z M22.887,20.375
		l-1.575,3.39h1.314l0.179-0.439h0.841l0.038,0.445h1.212l-0.479-3.396H22.887L22.887,20.375z"/>
	<path d="M28.273,21.379c0.014,0,0.159-0.004,0.26,0.02c0.286,0.072,0.445,0.318,0.449,0.608c0,0.208-0.082,0.362-0.12,0.425
		c-0.134,0.217-0.31,0.294-0.546,0.328c-0.076,0.014-0.148,0.02-0.222,0.023l0.179-1.406V21.379z M28.316,23.765
		c0.279-0.01,0.487-0.023,0.753-0.115c0.465-0.165,0.831-0.517,1.011-0.986c0.115-0.294,0.129-0.564,0.129-0.686
		c0-0.595-0.262-0.956-0.414-1.119c-0.241-0.258-0.479-0.33-0.813-0.427c-0.192-0.023-0.381-0.043-0.574-0.053
		c-0.184-0.01-0.373-0.004-0.556,0c-0.228,0.005-0.454,0-0.681,0l-0.434,3.386H28.316L28.316,23.765z"/>
	<path d="M31.846,22.552c0.043-0.125,0.082-0.251,0.129-0.371c0.106-0.28,0.156-0.337,0.277-0.82l0.086,1.191H31.846z
		 M31.637,20.375l-1.573,3.39h1.313l0.178-0.439h0.841l0.038,0.445h1.212l-0.478-3.396H31.637L31.637,20.375z"/>
	<path d="M36.9,20.635c-0.193-0.102-0.617-0.354-1.216-0.354c-0.726,0-1.126,0.373-1.28,0.617c-0.156,0.246-0.17,0.479-0.17,0.591
		c0,0.299,0.111,0.479,0.189,0.564c0.109,0.131,0.332,0.272,0.487,0.329c0.063,0.02,0.13,0.038,0.198,0.058
		c0.053,0.015,0.105,0.033,0.16,0.055c0.092,0.033,0.164,0.033,0.217,0.135c0.027,0.048,0.027,0.082,0.033,0.106
		c0,0.129-0.184,0.178-0.309,0.183c-0.111,0-0.228-0.038-0.256-0.048c-0.229-0.063-0.344-0.148-0.426-0.218
		c-0.049-0.037-0.096-0.082-0.145-0.125l-0.464,0.909c0.323,0.182,0.575,0.317,0.946,0.386c0.16,0.033,0.328,0.038,0.381,0.038
		c0.527,0,0.885-0.206,1.049-0.333c0.406-0.313,0.459-0.725,0.459-0.912c0-0.189-0.043-0.638-0.521-0.861
		c-0.125-0.052-0.266-0.092-0.305-0.102c-0.063-0.019-0.125-0.042-0.193-0.057c-0.135-0.039-0.174-0.039-0.227-0.112
		c-0.01-0.01-0.033-0.052-0.033-0.096c0-0.105,0.145-0.165,0.257-0.165c0.14,0,0.409,0.083,0.54,0.165
		c0.068,0.044,0.115,0.086,0.174,0.139L36.9,20.635L36.9,20.635z"/>
	<path d="M41.427,20.635c-0.194-0.102-0.618-0.354-1.218-0.354c-0.724,0-1.125,0.373-1.279,0.617
		c-0.154,0.246-0.17,0.479-0.17,0.591c0,0.299,0.111,0.479,0.189,0.564c0.111,0.131,0.333,0.272,0.487,0.329
		c0.063,0.02,0.13,0.038,0.198,0.058c0.053,0.015,0.106,0.033,0.159,0.055c0.093,0.033,0.165,0.033,0.218,0.135
		c0.029,0.048,0.029,0.082,0.034,0.106c0,0.129-0.185,0.178-0.31,0.183c-0.111,0-0.227-0.038-0.256-0.048
		c-0.229-0.063-0.344-0.148-0.426-0.218c-0.047-0.037-0.097-0.082-0.145-0.125l-0.465,0.909c0.324,0.182,0.576,0.317,0.947,0.386
		c0.16,0.033,0.328,0.038,0.382,0.038c0.526,0,0.885-0.206,1.048-0.333c0.406-0.313,0.459-0.725,0.459-0.912
		c0-0.189-0.042-0.638-0.521-0.861c-0.125-0.052-0.266-0.092-0.303-0.102c-0.063-0.019-0.127-0.042-0.193-0.057
		c-0.135-0.039-0.174-0.039-0.227-0.112c-0.01-0.01-0.034-0.052-0.034-0.096c0-0.105,0.145-0.165,0.256-0.165
		c0.14,0,0.411,0.083,0.541,0.165c0.067,0.044,0.116,0.086,0.175,0.139l0.454-0.893H41.427z"/>
	<polygon points="42.141,20.375 41.705,23.771 43.961,23.771 44.088,22.847 43.048,22.847 43.092,22.471 44.01,22.471 
		44.115,21.624 43.193,21.624 43.246,21.257 44.25,21.257 44.361,20.375 	"/>
	<polygon points="44.752,20.384 44.621,21.437 45.206,21.437 44.911,23.771 46.162,23.771 46.452,21.437 46.992,21.437 
		47.119,20.384 	"/>
	<polygon points="47.575,20.375 47.141,23.771 49.398,23.771 49.521,22.847 48.482,22.847 48.527,22.471 49.445,22.471 
		49.551,21.624 48.629,21.624 48.682,21.257 49.687,21.257 49.798,20.375 	"/>
	<g>
		<path fill="#020000" d="M54.678,5.485c0-0.193-0.156-0.349-0.35-0.349h-0.26c-0.047,0-0.088,0.041-0.088,0.087v0.87
			c0,0.049,0.041,0.087,0.088,0.087s0.088-0.039,0.088-0.087V5.833h0.129l0.236,0.313c0.012,0.018,0.033,0.029,0.057,0.034
			c0.023,0.004,0.047-0.002,0.066-0.017c0.018-0.013,0.029-0.034,0.033-0.057c0.002-0.024-0.004-0.046-0.018-0.064l-0.182-0.244
			c0.117-0.056,0.199-0.175,0.199-0.314V5.485z M54.328,5.659h-0.172V5.31h0.172c0.096,0,0.176,0.079,0.176,0.175
			C54.504,5.581,54.424,5.659,54.328,5.659z"/>
		<path fill="#020000" d="M54.762,4.614c-0.422-0.175-0.908-0.079-1.232,0.245c-0.324,0.323-0.42,0.811-0.244,1.234
			c0.174,0.423,0.586,0.699,1.043,0.699c0.625,0,1.131-0.508,1.133-1.132C55.461,5.202,55.186,4.789,54.762,4.614L54.762,4.614z
			 M54.695,6.544c-0.357,0.148-0.77,0.067-1.043-0.208c-0.275-0.274-0.357-0.686-0.207-1.044c0.146-0.357,0.496-0.59,0.883-0.59
			c0.531,0,0.957,0.429,0.959,0.957C55.287,6.046,55.053,6.395,54.695,6.544z"/>
	</g>
	<g>
		<circle fill="#FF0000" cx="27.165" cy="1.134" r="1.132"/>
		<path fill="#FF0000" d="M26.258,2.499L23.02,8.547c-1.053-1.121-2.094-2.973-2.094-2.973c-0.851-1.399-1.504-3.078-1.696-3.589
			c0.239-0.208,0.391-0.512,0.391-0.853C19.62,0.506,19.112,0,18.487,0c-0.624,0-1.132,0.507-1.132,1.132
			c0,0.625,0.508,1.131,1.132,1.131c0.019,0,0.035-0.001,0.052-0.002c-0.009,0.233-0.015,0.47-0.017,0.712
			c-0.004,0.398,0.004-0.344,0.004,0.197c0,3.915,0.947,6.572,2.473,8.222c1.345,1.455,3.193,2.163,5.259,2.287v-0.268L26.258,2.499
			L26.258,2.499z"/>
		<path fill="#FF0000" d="M4.527,15.846h10.686C11.106,13.73,8.288,9.851,8.074,3.092L5.142,8.475L1.577,2.172
			C1.98,2,2.263,1.599,2.263,1.132C2.263,0.506,1.756,0,1.132,0S0,0.507,0,1.132c0,0.52,0.35,0.956,0.827,1.089
			c1.1,2.542,2.375,6.92,2.375,6.92C4.274,12.714,4.527,15.846,4.527,15.846z"/>
		<path fill="#FF0000" d="M9.527,2.226c0,0.009,0,0.017,0,0.025c0,5.893,2.005,9.471,5.103,11.553
			c1.395,0.938,3.021,1.597,4.796,2.041h6.833v-0.68c-5.105-0.314-9.272-3.792-9.205-12.205c0-0.016,0-0.032,0-0.047
			c-0.165,0.292-3.061,5.427-3.166,5.535C13.78,8.558,11.915,5.573,11.77,5.22c0,0-0.979-1.784-1.359-3.13
			c0.318-0.201,0.53-0.554,0.53-0.958C10.94,0.506,10.435,0,9.81,0C9.185,0,8.678,0.507,8.678,1.132
			C8.678,1.659,9.039,2.102,9.527,2.226L9.527,2.226z"/>
		<rect x="4.527" y="16.978" fill="#FF0000" width="21.732" height="2.265"/>
		<path fill="#FF0000" d="M28.071,13.412v0.268c2.065-0.124,3.913-0.832,5.258-2.287c1.525-1.65,2.474-4.307,2.474-8.222
			c0-0.542,0.008,0.201,0.004-0.197c-0.001-0.242-0.008-0.479-0.017-0.712c0.017,0,0.034,0.002,0.052,0.002
			c0.625,0,1.131-0.507,1.131-1.131C36.973,0.507,36.465,0,35.842,0c-0.625,0-1.131,0.507-1.131,1.132
			c0,0.341,0.15,0.645,0.389,0.853c-0.191,0.511-0.846,2.19-1.695,3.589c0,0-1.042,1.853-2.096,2.973l-3.237-6.048V13.412
			L28.071,13.412z"/>
		<path fill="#FF0000" d="M28.071,15.168v0.679h6.833c1.775-0.444,3.4-1.103,4.795-2.039c3.098-2.084,5.104-5.662,5.104-11.556
			c0-0.008,0-0.017,0-0.024c0.487-0.125,0.85-0.568,0.85-1.095C45.652,0.507,45.145,0,44.521,0S43.39,0.508,43.39,1.132
			c0,0.405,0.212,0.757,0.53,0.958c-0.381,1.348-1.359,3.131-1.359,3.131c-0.146,0.353-2.01,3.337-2.119,3.228
			c-0.106-0.106-3-5.241-3.166-5.534c0,0.016,0,0.031,0,0.047C37.344,11.374,33.177,14.852,28.071,15.168L28.071,15.168z"/>
		<path fill="#FF0000" d="M54.328,1.132C54.328,0.506,53.82,0,53.197,0c-0.624,0-1.131,0.507-1.131,1.132
			c0,0.467,0.281,0.868,0.687,1.04l-3.565,6.303l-2.932-5.383c-0.215,6.759-3.031,10.639-7.14,12.754h10.687
			c0,0,0.252-3.132,1.326-6.705c0,0,1.272-4.378,2.375-6.92C53.979,2.087,54.328,1.651,54.328,1.132z"/>
		<rect x="28.071" y="16.978" fill="#FF0000" width="21.731" height="2.265"/>
	</g>
</g>
</svg>
